<?xml version="1.0" encoding="utf-8" standalone="no"?>
<!DOCTYPE svg PUBLIC "-//W3C//DTD SVG 1.1//EN"
  "http://www.w3.org/Graphics/SVG/1.1/DTD/svg11.dtd">
<!-- Created with matplotlib (https://matplotlib.org/) -->
<svg height="304.189125pt" version="1.1" viewBox="0 0 525.695625 304.189125" width="525.695625pt" xmlns="http://www.w3.org/2000/svg" xmlns:xlink="http://www.w3.org/1999/xlink">
 <metadata>
  <rdf:RDF xmlns:cc="http://creativecommons.org/ns#" xmlns:dc="http://purl.org/dc/elements/1.1/" xmlns:rdf="http://www.w3.org/1999/02/22-rdf-syntax-ns#">
   <cc:Work>
    <dc:type rdf:resource="http://purl.org/dc/dcmitype/StillImage"/>
    <dc:date>2022-10-20T02:47:30.594856</dc:date>
    <dc:format>image/svg+xml</dc:format>
    <dc:creator>
     <cc:Agent>
      <dc:title>Matplotlib v3.3.2, https://matplotlib.org/</dc:title>
     </cc:Agent>
    </dc:creator>
   </cc:Work>
  </rdf:RDF>
 </metadata>
 <defs>
  <style type="text/css">*{stroke-linecap:butt;stroke-linejoin:round;}</style>
 </defs>
 <g id="figure_1">
  <g id="patch_1">
   <path d="M 0 304.189125 
L 525.695625 304.189125 
L 525.695625 0 
L 0 0 
z
" style="fill:none;"/>
  </g>
  <g id="axes_1">
   <g id="patch_2">
    <path d="M 95.447812 266.632875 
L 430.247813 266.632875 
L 430.247813 49.192875 
L 95.447812 49.192875 
z
" style="fill:#ffffff;"/>
   </g>
   <g id="matplotlib.axis_1">
    <g id="xtick_1">
     <g id="line2d_1">
      <defs>
       <path d="M 0 0 
L 0 3.5 
" id="mea2fdbca59" style="stroke:#000000;stroke-width:0.8;"/>
      </defs>
      <g>
       <use style="stroke:#000000;stroke-width:0.8;" x="110.665994" xlink:href="#mea2fdbca59" y="266.632875"/>
      </g>
     </g>
     <g id="text_1">
      <!-- −1.0 -->
      <g transform="translate(98.524588 281.231312)scale(0.1 -0.1)">
       <defs>
        <path d="M 10.59375 35.5 
L 73.1875 35.5 
L 73.1875 27.203125 
L 10.59375 27.203125 
z
" id="DejaVuSans-8722"/>
        <path d="M 12.40625 8.296875 
L 28.515625 8.296875 
L 28.515625 63.921875 
L 10.984375 60.40625 
L 10.984375 69.390625 
L 28.421875 72.90625 
L 38.28125 72.90625 
L 38.28125 8.296875 
L 54.390625 8.296875 
L 54.390625 0 
L 12.40625 0 
z
" id="DejaVuSans-49"/>
        <path d="M 10.6875 12.40625 
L 21 12.40625 
L 21 0 
L 10.6875 0 
z
" id="DejaVuSans-46"/>
        <path d="M 31.78125 66.40625 
Q 24.171875 66.40625 20.328125 58.90625 
Q 16.5 51.421875 16.5 36.375 
Q 16.5 21.390625 20.328125 13.890625 
Q 24.171875 6.390625 31.78125 6.390625 
Q 39.453125 6.390625 43.28125 13.890625 
Q 47.125 21.390625 47.125 36.375 
Q 47.125 51.421875 43.28125 58.90625 
Q 39.453125 66.40625 31.78125 66.40625 
z
M 31.78125 74.21875 
Q 44.046875 74.21875 50.515625 64.515625 
Q 56.984375 54.828125 56.984375 36.375 
Q 56.984375 17.96875 50.515625 8.265625 
Q 44.046875 -1.421875 31.78125 -1.421875 
Q 19.53125 -1.421875 13.0625 8.265625 
Q 6.59375 17.96875 6.59375 36.375 
Q 6.59375 54.828125 13.0625 64.515625 
Q 19.53125 74.21875 31.78125 74.21875 
z
" id="DejaVuSans-48"/>
       </defs>
       <use xlink:href="#DejaVuSans-8722"/>
       <use x="83.789062" xlink:href="#DejaVuSans-49"/>
       <use x="147.412109" xlink:href="#DejaVuSans-46"/>
       <use x="179.199219" xlink:href="#DejaVuSans-48"/>
      </g>
     </g>
    </g>
    <g id="xtick_2">
     <g id="line2d_2">
      <g>
       <use style="stroke:#000000;stroke-width:0.8;" x="172.153598" xlink:href="#mea2fdbca59" y="266.632875"/>
      </g>
     </g>
     <g id="text_2">
      <!-- −0.8 -->
      <g transform="translate(160.012191 281.231312)scale(0.1 -0.1)">
       <defs>
        <path d="M 31.78125 34.625 
Q 24.75 34.625 20.71875 30.859375 
Q 16.703125 27.09375 16.703125 20.515625 
Q 16.703125 13.921875 20.71875 10.15625 
Q 24.75 6.390625 31.78125 6.390625 
Q 38.8125 6.390625 42.859375 10.171875 
Q 46.921875 13.96875 46.921875 20.515625 
Q 46.921875 27.09375 42.890625 30.859375 
Q 38.875 34.625 31.78125 34.625 
z
M 21.921875 38.8125 
Q 15.578125 40.375 12.03125 44.71875 
Q 8.5 49.078125 8.5 55.328125 
Q 8.5 64.0625 14.71875 69.140625 
Q 20.953125 74.21875 31.78125 74.21875 
Q 42.671875 74.21875 48.875 69.140625 
Q 55.078125 64.0625 55.078125 55.328125 
Q 55.078125 49.078125 51.53125 44.71875 
Q 48 40.375 41.703125 38.8125 
Q 48.828125 37.15625 52.796875 32.3125 
Q 56.78125 27.484375 56.78125 20.515625 
Q 56.78125 9.90625 50.3125 4.234375 
Q 43.84375 -1.421875 31.78125 -1.421875 
Q 19.734375 -1.421875 13.25 4.234375 
Q 6.78125 9.90625 6.78125 20.515625 
Q 6.78125 27.484375 10.78125 32.3125 
Q 14.796875 37.15625 21.921875 38.8125 
z
M 18.3125 54.390625 
Q 18.3125 48.734375 21.84375 45.5625 
Q 25.390625 42.390625 31.78125 42.390625 
Q 38.140625 42.390625 41.71875 45.5625 
Q 45.3125 48.734375 45.3125 54.390625 
Q 45.3125 60.0625 41.71875 63.234375 
Q 38.140625 66.40625 31.78125 66.40625 
Q 25.390625 66.40625 21.84375 63.234375 
Q 18.3125 60.0625 18.3125 54.390625 
z
" id="DejaVuSans-56"/>
       </defs>
       <use xlink:href="#DejaVuSans-8722"/>
       <use x="83.789062" xlink:href="#DejaVuSans-48"/>
       <use x="147.412109" xlink:href="#DejaVuSans-46"/>
       <use x="179.199219" xlink:href="#DejaVuSans-56"/>
      </g>
     </g>
    </g>
    <g id="xtick_3">
     <g id="line2d_3">
      <g>
       <use style="stroke:#000000;stroke-width:0.8;" x="233.641201" xlink:href="#mea2fdbca59" y="266.632875"/>
      </g>
     </g>
     <g id="text_3">
      <!-- −0.6 -->
      <g transform="translate(221.499795 281.231312)scale(0.1 -0.1)">
       <defs>
        <path d="M 33.015625 40.375 
Q 26.375 40.375 22.484375 35.828125 
Q 18.609375 31.296875 18.609375 23.390625 
Q 18.609375 15.53125 22.484375 10.953125 
Q 26.375 6.390625 33.015625 6.390625 
Q 39.65625 6.390625 43.53125 10.953125 
Q 47.40625 15.53125 47.40625 23.390625 
Q 47.40625 31.296875 43.53125 35.828125 
Q 39.65625 40.375 33.015625 40.375 
z
M 52.59375 71.296875 
L 52.59375 62.3125 
Q 48.875 64.0625 45.09375 64.984375 
Q 41.3125 65.921875 37.59375 65.921875 
Q 27.828125 65.921875 22.671875 59.328125 
Q 17.53125 52.734375 16.796875 39.40625 
Q 19.671875 43.65625 24.015625 45.921875 
Q 28.375 48.1875 33.59375 48.1875 
Q 44.578125 48.1875 50.953125 41.515625 
Q 57.328125 34.859375 57.328125 23.390625 
Q 57.328125 12.15625 50.6875 5.359375 
Q 44.046875 -1.421875 33.015625 -1.421875 
Q 20.359375 -1.421875 13.671875 8.265625 
Q 6.984375 17.96875 6.984375 36.375 
Q 6.984375 53.65625 15.1875 63.9375 
Q 23.390625 74.21875 37.203125 74.21875 
Q 40.921875 74.21875 44.703125 73.484375 
Q 48.484375 72.75 52.59375 71.296875 
z
" id="DejaVuSans-54"/>
       </defs>
       <use xlink:href="#DejaVuSans-8722"/>
       <use x="83.789062" xlink:href="#DejaVuSans-48"/>
       <use x="147.412109" xlink:href="#DejaVuSans-46"/>
       <use x="179.199219" xlink:href="#DejaVuSans-54"/>
      </g>
     </g>
    </g>
    <g id="xtick_4">
     <g id="line2d_4">
      <g>
       <use style="stroke:#000000;stroke-width:0.8;" x="295.128804" xlink:href="#mea2fdbca59" y="266.632875"/>
      </g>
     </g>
     <g id="text_4">
      <!-- −0.4 -->
      <g transform="translate(282.987398 281.231312)scale(0.1 -0.1)">
       <defs>
        <path d="M 37.796875 64.3125 
L 12.890625 25.390625 
L 37.796875 25.390625 
z
M 35.203125 72.90625 
L 47.609375 72.90625 
L 47.609375 25.390625 
L 58.015625 25.390625 
L 58.015625 17.1875 
L 47.609375 17.1875 
L 47.609375 0 
L 37.796875 0 
L 37.796875 17.1875 
L 4.890625 17.1875 
L 4.890625 26.703125 
z
" id="DejaVuSans-52"/>
       </defs>
       <use xlink:href="#DejaVuSans-8722"/>
       <use x="83.789062" xlink:href="#DejaVuSans-48"/>
       <use x="147.412109" xlink:href="#DejaVuSans-46"/>
       <use x="179.199219" xlink:href="#DejaVuSans-52"/>
      </g>
     </g>
    </g>
    <g id="xtick_5">
     <g id="line2d_5">
      <g>
       <use style="stroke:#000000;stroke-width:0.8;" x="356.616408" xlink:href="#mea2fdbca59" y="266.632875"/>
      </g>
     </g>
     <g id="text_5">
      <!-- −0.2 -->
      <g transform="translate(344.475001 281.231312)scale(0.1 -0.1)">
       <defs>
        <path d="M 19.1875 8.296875 
L 53.609375 8.296875 
L 53.609375 0 
L 7.328125 0 
L 7.328125 8.296875 
Q 12.9375 14.109375 22.625 23.890625 
Q 32.328125 33.6875 34.8125 36.53125 
Q 39.546875 41.84375 41.421875 45.53125 
Q 43.3125 49.21875 43.3125 52.78125 
Q 43.3125 58.59375 39.234375 62.25 
Q 35.15625 65.921875 28.609375 65.921875 
Q 23.96875 65.921875 18.8125 64.3125 
Q 13.671875 62.703125 7.8125 59.421875 
L 7.8125 69.390625 
Q 13.765625 71.78125 18.9375 73 
Q 24.125 74.21875 28.421875 74.21875 
Q 39.75 74.21875 46.484375 68.546875 
Q 53.21875 62.890625 53.21875 53.421875 
Q 53.21875 48.921875 51.53125 44.890625 
Q 49.859375 40.875 45.40625 35.40625 
Q 44.1875 33.984375 37.640625 27.21875 
Q 31.109375 20.453125 19.1875 8.296875 
z
" id="DejaVuSans-50"/>
       </defs>
       <use xlink:href="#DejaVuSans-8722"/>
       <use x="83.789062" xlink:href="#DejaVuSans-48"/>
       <use x="147.412109" xlink:href="#DejaVuSans-46"/>
       <use x="179.199219" xlink:href="#DejaVuSans-50"/>
      </g>
     </g>
    </g>
    <g id="xtick_6">
     <g id="line2d_6">
      <g>
       <use style="stroke:#000000;stroke-width:0.8;" x="418.104011" xlink:href="#mea2fdbca59" y="266.632875"/>
      </g>
     </g>
     <g id="text_6">
      <!-- 0.0 -->
      <g transform="translate(410.152448 281.231312)scale(0.1 -0.1)">
       <use xlink:href="#DejaVuSans-48"/>
       <use x="63.623047" xlink:href="#DejaVuSans-46"/>
       <use x="95.410156" xlink:href="#DejaVuSans-48"/>
      </g>
     </g>
    </g>
    <g id="text_7">
     <!-- Parameter lambda -->
     <g transform="translate(216.510313 294.909437)scale(0.1 -0.1)">
      <defs>
       <path d="M 19.671875 64.796875 
L 19.671875 37.40625 
L 32.078125 37.40625 
Q 38.96875 37.40625 42.71875 40.96875 
Q 46.484375 44.53125 46.484375 51.125 
Q 46.484375 57.671875 42.71875 61.234375 
Q 38.96875 64.796875 32.078125 64.796875 
z
M 9.8125 72.90625 
L 32.078125 72.90625 
Q 44.34375 72.90625 50.609375 67.359375 
Q 56.890625 61.8125 56.890625 51.125 
Q 56.890625 40.328125 50.609375 34.8125 
Q 44.34375 29.296875 32.078125 29.296875 
L 19.671875 29.296875 
L 19.671875 0 
L 9.8125 0 
z
" id="DejaVuSans-80"/>
       <path d="M 34.28125 27.484375 
Q 23.390625 27.484375 19.1875 25 
Q 14.984375 22.515625 14.984375 16.5 
Q 14.984375 11.71875 18.140625 8.90625 
Q 21.296875 6.109375 26.703125 6.109375 
Q 34.1875 6.109375 38.703125 11.40625 
Q 43.21875 16.703125 43.21875 25.484375 
L 43.21875 27.484375 
z
M 52.203125 31.203125 
L 52.203125 0 
L 43.21875 0 
L 43.21875 8.296875 
Q 40.140625 3.328125 35.546875 0.953125 
Q 30.953125 -1.421875 24.3125 -1.421875 
Q 15.921875 -1.421875 10.953125 3.296875 
Q 6 8.015625 6 15.921875 
Q 6 25.140625 12.171875 29.828125 
Q 18.359375 34.515625 30.609375 34.515625 
L 43.21875 34.515625 
L 43.21875 35.40625 
Q 43.21875 41.609375 39.140625 45 
Q 35.0625 48.390625 27.6875 48.390625 
Q 23 48.390625 18.546875 47.265625 
Q 14.109375 46.140625 10.015625 43.890625 
L 10.015625 52.203125 
Q 14.9375 54.109375 19.578125 55.046875 
Q 24.21875 56 28.609375 56 
Q 40.484375 56 46.34375 49.84375 
Q 52.203125 43.703125 52.203125 31.203125 
z
" id="DejaVuSans-97"/>
       <path d="M 41.109375 46.296875 
Q 39.59375 47.171875 37.8125 47.578125 
Q 36.03125 48 33.890625 48 
Q 26.265625 48 22.1875 43.046875 
Q 18.109375 38.09375 18.109375 28.8125 
L 18.109375 0 
L 9.078125 0 
L 9.078125 54.6875 
L 18.109375 54.6875 
L 18.109375 46.1875 
Q 20.953125 51.171875 25.484375 53.578125 
Q 30.03125 56 36.53125 56 
Q 37.453125 56 38.578125 55.875 
Q 39.703125 55.765625 41.0625 55.515625 
z
" id="DejaVuSans-114"/>
       <path d="M 52 44.1875 
Q 55.375 50.25 60.0625 53.125 
Q 64.75 56 71.09375 56 
Q 79.640625 56 84.28125 50.015625 
Q 88.921875 44.046875 88.921875 33.015625 
L 88.921875 0 
L 79.890625 0 
L 79.890625 32.71875 
Q 79.890625 40.578125 77.09375 44.375 
Q 74.3125 48.1875 68.609375 48.1875 
Q 61.625 48.1875 57.5625 43.546875 
Q 53.515625 38.921875 53.515625 30.90625 
L 53.515625 0 
L 44.484375 0 
L 44.484375 32.71875 
Q 44.484375 40.625 41.703125 44.40625 
Q 38.921875 48.1875 33.109375 48.1875 
Q 26.21875 48.1875 22.15625 43.53125 
Q 18.109375 38.875 18.109375 30.90625 
L 18.109375 0 
L 9.078125 0 
L 9.078125 54.6875 
L 18.109375 54.6875 
L 18.109375 46.1875 
Q 21.1875 51.21875 25.484375 53.609375 
Q 29.78125 56 35.6875 56 
Q 41.65625 56 45.828125 52.96875 
Q 50 49.953125 52 44.1875 
z
" id="DejaVuSans-109"/>
       <path d="M 56.203125 29.59375 
L 56.203125 25.203125 
L 14.890625 25.203125 
Q 15.484375 15.921875 20.484375 11.0625 
Q 25.484375 6.203125 34.421875 6.203125 
Q 39.59375 6.203125 44.453125 7.46875 
Q 49.3125 8.734375 54.109375 11.28125 
L 54.109375 2.78125 
Q 49.265625 0.734375 44.1875 -0.34375 
Q 39.109375 -1.421875 33.890625 -1.421875 
Q 20.796875 -1.421875 13.15625 6.1875 
Q 5.515625 13.8125 5.515625 26.8125 
Q 5.515625 40.234375 12.765625 48.109375 
Q 20.015625 56 32.328125 56 
Q 43.359375 56 49.78125 48.890625 
Q 56.203125 41.796875 56.203125 29.59375 
z
M 47.21875 32.234375 
Q 47.125 39.59375 43.09375 43.984375 
Q 39.0625 48.390625 32.421875 48.390625 
Q 24.90625 48.390625 20.390625 44.140625 
Q 15.875 39.890625 15.1875 32.171875 
z
" id="DejaVuSans-101"/>
       <path d="M 18.3125 70.21875 
L 18.3125 54.6875 
L 36.8125 54.6875 
L 36.8125 47.703125 
L 18.3125 47.703125 
L 18.3125 18.015625 
Q 18.3125 11.328125 20.140625 9.421875 
Q 21.96875 7.515625 27.59375 7.515625 
L 36.8125 7.515625 
L 36.8125 0 
L 27.59375 0 
Q 17.1875 0 13.234375 3.875 
Q 9.28125 7.765625 9.28125 18.015625 
L 9.28125 47.703125 
L 2.6875 47.703125 
L 2.6875 54.6875 
L 9.28125 54.6875 
L 9.28125 70.21875 
z
" id="DejaVuSans-116"/>
       <path id="DejaVuSans-32"/>
       <path d="M 9.421875 75.984375 
L 18.40625 75.984375 
L 18.40625 0 
L 9.421875 0 
z
" id="DejaVuSans-108"/>
       <path d="M 48.6875 27.296875 
Q 48.6875 37.203125 44.609375 42.84375 
Q 40.53125 48.484375 33.40625 48.484375 
Q 26.265625 48.484375 22.1875 42.84375 
Q 18.109375 37.203125 18.109375 27.296875 
Q 18.109375 17.390625 22.1875 11.75 
Q 26.265625 6.109375 33.40625 6.109375 
Q 40.53125 6.109375 44.609375 11.75 
Q 48.6875 17.390625 48.6875 27.296875 
z
M 18.109375 46.390625 
Q 20.953125 51.265625 25.265625 53.625 
Q 29.59375 56 35.59375 56 
Q 45.5625 56 51.78125 48.09375 
Q 58.015625 40.1875 58.015625 27.296875 
Q 58.015625 14.40625 51.78125 6.484375 
Q 45.5625 -1.421875 35.59375 -1.421875 
Q 29.59375 -1.421875 25.265625 0.953125 
Q 20.953125 3.328125 18.109375 8.203125 
L 18.109375 0 
L 9.078125 0 
L 9.078125 75.984375 
L 18.109375 75.984375 
z
" id="DejaVuSans-98"/>
       <path d="M 45.40625 46.390625 
L 45.40625 75.984375 
L 54.390625 75.984375 
L 54.390625 0 
L 45.40625 0 
L 45.40625 8.203125 
Q 42.578125 3.328125 38.25 0.953125 
Q 33.9375 -1.421875 27.875 -1.421875 
Q 17.96875 -1.421875 11.734375 6.484375 
Q 5.515625 14.40625 5.515625 27.296875 
Q 5.515625 40.1875 11.734375 48.09375 
Q 17.96875 56 27.875 56 
Q 33.9375 56 38.25 53.625 
Q 42.578125 51.265625 45.40625 46.390625 
z
M 14.796875 27.296875 
Q 14.796875 17.390625 18.875 11.75 
Q 22.953125 6.109375 30.078125 6.109375 
Q 37.203125 6.109375 41.296875 11.75 
Q 45.40625 17.390625 45.40625 27.296875 
Q 45.40625 37.203125 41.296875 42.84375 
Q 37.203125 48.484375 30.078125 48.484375 
Q 22.953125 48.484375 18.875 42.84375 
Q 14.796875 37.203125 14.796875 27.296875 
z
" id="DejaVuSans-100"/>
      </defs>
      <use xlink:href="#DejaVuSans-80"/>
      <use x="55.802734" xlink:href="#DejaVuSans-97"/>
      <use x="117.082031" xlink:href="#DejaVuSans-114"/>
      <use x="158.195312" xlink:href="#DejaVuSans-97"/>
      <use x="219.474609" xlink:href="#DejaVuSans-109"/>
      <use x="316.886719" xlink:href="#DejaVuSans-101"/>
      <use x="378.410156" xlink:href="#DejaVuSans-116"/>
      <use x="417.619141" xlink:href="#DejaVuSans-101"/>
      <use x="479.142578" xlink:href="#DejaVuSans-114"/>
      <use x="520.255859" xlink:href="#DejaVuSans-32"/>
      <use x="552.042969" xlink:href="#DejaVuSans-108"/>
      <use x="579.826172" xlink:href="#DejaVuSans-97"/>
      <use x="641.105469" xlink:href="#DejaVuSans-109"/>
      <use x="738.517578" xlink:href="#DejaVuSans-98"/>
      <use x="801.994141" xlink:href="#DejaVuSans-100"/>
      <use x="865.470703" xlink:href="#DejaVuSans-97"/>
     </g>
    </g>
   </g>
   <g id="matplotlib.axis_2">
    <g id="ytick_1">
     <g id="line2d_7">
      <defs>
       <path d="M 0 0 
L -3.5 0 
" id="m296f52b4c5" style="stroke:#000000;stroke-width:0.8;"/>
      </defs>
      <g>
       <use style="stroke:#000000;stroke-width:0.8;" x="95.447812" xlink:href="#m296f52b4c5" y="256.749239"/>
      </g>
     </g>
     <g id="text_8">
      <!-- 0.000 -->
      <g transform="translate(59.819687 260.548457)scale(0.1 -0.1)">
       <use xlink:href="#DejaVuSans-48"/>
       <use x="63.623047" xlink:href="#DejaVuSans-46"/>
       <use x="95.410156" xlink:href="#DejaVuSans-48"/>
       <use x="159.033203" xlink:href="#DejaVuSans-48"/>
       <use x="222.65625" xlink:href="#DejaVuSans-48"/>
      </g>
     </g>
    </g>
    <g id="ytick_2">
     <g id="line2d_8">
      <g>
       <use style="stroke:#000000;stroke-width:0.8;" x="95.447812" xlink:href="#m296f52b4c5" y="226.454752"/>
      </g>
     </g>
     <g id="text_9">
      <!-- 0.001 -->
      <g transform="translate(59.819687 230.253971)scale(0.1 -0.1)">
       <use xlink:href="#DejaVuSans-48"/>
       <use x="63.623047" xlink:href="#DejaVuSans-46"/>
       <use x="95.410156" xlink:href="#DejaVuSans-48"/>
       <use x="159.033203" xlink:href="#DejaVuSans-48"/>
       <use x="222.65625" xlink:href="#DejaVuSans-49"/>
      </g>
     </g>
    </g>
    <g id="ytick_3">
     <g id="line2d_9">
      <g>
       <use style="stroke:#000000;stroke-width:0.8;" x="95.447812" xlink:href="#m296f52b4c5" y="196.160265"/>
      </g>
     </g>
     <g id="text_10">
      <!-- 0.002 -->
      <g transform="translate(59.819687 199.959484)scale(0.1 -0.1)">
       <use xlink:href="#DejaVuSans-48"/>
       <use x="63.623047" xlink:href="#DejaVuSans-46"/>
       <use x="95.410156" xlink:href="#DejaVuSans-48"/>
       <use x="159.033203" xlink:href="#DejaVuSans-48"/>
       <use x="222.65625" xlink:href="#DejaVuSans-50"/>
      </g>
     </g>
    </g>
    <g id="ytick_4">
     <g id="line2d_10">
      <g>
       <use style="stroke:#000000;stroke-width:0.8;" x="95.447812" xlink:href="#m296f52b4c5" y="165.865779"/>
      </g>
     </g>
     <g id="text_11">
      <!-- 0.003 -->
      <g transform="translate(59.819687 169.664997)scale(0.1 -0.1)">
       <defs>
        <path d="M 40.578125 39.3125 
Q 47.65625 37.796875 51.625 33 
Q 55.609375 28.21875 55.609375 21.1875 
Q 55.609375 10.40625 48.1875 4.484375 
Q 40.765625 -1.421875 27.09375 -1.421875 
Q 22.515625 -1.421875 17.65625 -0.515625 
Q 12.796875 0.390625 7.625 2.203125 
L 7.625 11.71875 
Q 11.71875 9.328125 16.59375 8.109375 
Q 21.484375 6.890625 26.8125 6.890625 
Q 36.078125 6.890625 40.9375 10.546875 
Q 45.796875 14.203125 45.796875 21.1875 
Q 45.796875 27.640625 41.28125 31.265625 
Q 36.765625 34.90625 28.71875 34.90625 
L 20.21875 34.90625 
L 20.21875 43.015625 
L 29.109375 43.015625 
Q 36.375 43.015625 40.234375 45.921875 
Q 44.09375 48.828125 44.09375 54.296875 
Q 44.09375 59.90625 40.109375 62.90625 
Q 36.140625 65.921875 28.71875 65.921875 
Q 24.65625 65.921875 20.015625 65.03125 
Q 15.375 64.15625 9.8125 62.3125 
L 9.8125 71.09375 
Q 15.4375 72.65625 20.34375 73.4375 
Q 25.25 74.21875 29.59375 74.21875 
Q 40.828125 74.21875 47.359375 69.109375 
Q 53.90625 64.015625 53.90625 55.328125 
Q 53.90625 49.265625 50.4375 45.09375 
Q 46.96875 40.921875 40.578125 39.3125 
z
" id="DejaVuSans-51"/>
       </defs>
       <use xlink:href="#DejaVuSans-48"/>
       <use x="63.623047" xlink:href="#DejaVuSans-46"/>
       <use x="95.410156" xlink:href="#DejaVuSans-48"/>
       <use x="159.033203" xlink:href="#DejaVuSans-48"/>
       <use x="222.65625" xlink:href="#DejaVuSans-51"/>
      </g>
     </g>
    </g>
    <g id="ytick_5">
     <g id="line2d_11">
      <g>
       <use style="stroke:#000000;stroke-width:0.8;" x="95.447812" xlink:href="#m296f52b4c5" y="135.571292"/>
      </g>
     </g>
     <g id="text_12">
      <!-- 0.004 -->
      <g transform="translate(59.819687 139.370511)scale(0.1 -0.1)">
       <use xlink:href="#DejaVuSans-48"/>
       <use x="63.623047" xlink:href="#DejaVuSans-46"/>
       <use x="95.410156" xlink:href="#DejaVuSans-48"/>
       <use x="159.033203" xlink:href="#DejaVuSans-48"/>
       <use x="222.65625" xlink:href="#DejaVuSans-52"/>
      </g>
     </g>
    </g>
    <g id="ytick_6">
     <g id="line2d_12">
      <g>
       <use style="stroke:#000000;stroke-width:0.8;" x="95.447812" xlink:href="#m296f52b4c5" y="105.276805"/>
      </g>
     </g>
     <g id="text_13">
      <!-- 0.005 -->
      <g transform="translate(59.819687 109.076024)scale(0.1 -0.1)">
       <defs>
        <path d="M 10.796875 72.90625 
L 49.515625 72.90625 
L 49.515625 64.59375 
L 19.828125 64.59375 
L 19.828125 46.734375 
Q 21.96875 47.46875 24.109375 47.828125 
Q 26.265625 48.1875 28.421875 48.1875 
Q 40.625 48.1875 47.75 41.5 
Q 54.890625 34.8125 54.890625 23.390625 
Q 54.890625 11.625 47.5625 5.09375 
Q 40.234375 -1.421875 26.90625 -1.421875 
Q 22.3125 -1.421875 17.546875 -0.640625 
Q 12.796875 0.140625 7.71875 1.703125 
L 7.71875 11.625 
Q 12.109375 9.234375 16.796875 8.0625 
Q 21.484375 6.890625 26.703125 6.890625 
Q 35.15625 6.890625 40.078125 11.328125 
Q 45.015625 15.765625 45.015625 23.390625 
Q 45.015625 31 40.078125 35.4375 
Q 35.15625 39.890625 26.703125 39.890625 
Q 22.75 39.890625 18.8125 39.015625 
Q 14.890625 38.140625 10.796875 36.28125 
z
" id="DejaVuSans-53"/>
       </defs>
       <use xlink:href="#DejaVuSans-48"/>
       <use x="63.623047" xlink:href="#DejaVuSans-46"/>
       <use x="95.410156" xlink:href="#DejaVuSans-48"/>
       <use x="159.033203" xlink:href="#DejaVuSans-48"/>
       <use x="222.65625" xlink:href="#DejaVuSans-53"/>
      </g>
     </g>
    </g>
    <g id="ytick_7">
     <g id="line2d_13">
      <g>
       <use style="stroke:#000000;stroke-width:0.8;" x="95.447812" xlink:href="#m296f52b4c5" y="74.982319"/>
      </g>
     </g>
     <g id="text_14">
      <!-- 0.006 -->
      <g transform="translate(59.819687 78.781537)scale(0.1 -0.1)">
       <use xlink:href="#DejaVuSans-48"/>
       <use x="63.623047" xlink:href="#DejaVuSans-46"/>
       <use x="95.410156" xlink:href="#DejaVuSans-48"/>
       <use x="159.033203" xlink:href="#DejaVuSans-48"/>
       <use x="222.65625" xlink:href="#DejaVuSans-54"/>
      </g>
     </g>
    </g>
    <g id="text_15">
     <!-- Number of seconds needed -->
     <g transform="translate(53.74 226.769906)rotate(-90)scale(0.1 -0.1)">
      <defs>
       <path d="M 9.8125 72.90625 
L 23.09375 72.90625 
L 55.421875 11.921875 
L 55.421875 72.90625 
L 64.984375 72.90625 
L 64.984375 0 
L 51.703125 0 
L 19.390625 60.984375 
L 19.390625 0 
L 9.8125 0 
z
" id="DejaVuSans-78"/>
       <path d="M 8.5 21.578125 
L 8.5 54.6875 
L 17.484375 54.6875 
L 17.484375 21.921875 
Q 17.484375 14.15625 20.5 10.265625 
Q 23.53125 6.390625 29.59375 6.390625 
Q 36.859375 6.390625 41.078125 11.03125 
Q 45.3125 15.671875 45.3125 23.6875 
L 45.3125 54.6875 
L 54.296875 54.6875 
L 54.296875 0 
L 45.3125 0 
L 45.3125 8.40625 
Q 42.046875 3.421875 37.71875 1 
Q 33.40625 -1.421875 27.6875 -1.421875 
Q 18.265625 -1.421875 13.375 4.4375 
Q 8.5 10.296875 8.5 21.578125 
z
M 31.109375 56 
z
" id="DejaVuSans-117"/>
       <path d="M 30.609375 48.390625 
Q 23.390625 48.390625 19.1875 42.75 
Q 14.984375 37.109375 14.984375 27.296875 
Q 14.984375 17.484375 19.15625 11.84375 
Q 23.34375 6.203125 30.609375 6.203125 
Q 37.796875 6.203125 41.984375 11.859375 
Q 46.1875 17.53125 46.1875 27.296875 
Q 46.1875 37.015625 41.984375 42.703125 
Q 37.796875 48.390625 30.609375 48.390625 
z
M 30.609375 56 
Q 42.328125 56 49.015625 48.375 
Q 55.71875 40.765625 55.71875 27.296875 
Q 55.71875 13.875 49.015625 6.21875 
Q 42.328125 -1.421875 30.609375 -1.421875 
Q 18.84375 -1.421875 12.171875 6.21875 
Q 5.515625 13.875 5.515625 27.296875 
Q 5.515625 40.765625 12.171875 48.375 
Q 18.84375 56 30.609375 56 
z
" id="DejaVuSans-111"/>
       <path d="M 37.109375 75.984375 
L 37.109375 68.5 
L 28.515625 68.5 
Q 23.6875 68.5 21.796875 66.546875 
Q 19.921875 64.59375 19.921875 59.515625 
L 19.921875 54.6875 
L 34.71875 54.6875 
L 34.71875 47.703125 
L 19.921875 47.703125 
L 19.921875 0 
L 10.890625 0 
L 10.890625 47.703125 
L 2.296875 47.703125 
L 2.296875 54.6875 
L 10.890625 54.6875 
L 10.890625 58.5 
Q 10.890625 67.625 15.140625 71.796875 
Q 19.390625 75.984375 28.609375 75.984375 
z
" id="DejaVuSans-102"/>
       <path d="M 44.28125 53.078125 
L 44.28125 44.578125 
Q 40.484375 46.53125 36.375 47.5 
Q 32.28125 48.484375 27.875 48.484375 
Q 21.1875 48.484375 17.84375 46.4375 
Q 14.5 44.390625 14.5 40.28125 
Q 14.5 37.15625 16.890625 35.375 
Q 19.28125 33.59375 26.515625 31.984375 
L 29.59375 31.296875 
Q 39.15625 29.25 43.1875 25.515625 
Q 47.21875 21.78125 47.21875 15.09375 
Q 47.21875 7.46875 41.1875 3.015625 
Q 35.15625 -1.421875 24.609375 -1.421875 
Q 20.21875 -1.421875 15.453125 -0.5625 
Q 10.6875 0.296875 5.421875 2 
L 5.421875 11.28125 
Q 10.40625 8.6875 15.234375 7.390625 
Q 20.0625 6.109375 24.8125 6.109375 
Q 31.15625 6.109375 34.5625 8.28125 
Q 37.984375 10.453125 37.984375 14.40625 
Q 37.984375 18.0625 35.515625 20.015625 
Q 33.0625 21.96875 24.703125 23.78125 
L 21.578125 24.515625 
Q 13.234375 26.265625 9.515625 29.90625 
Q 5.8125 33.546875 5.8125 39.890625 
Q 5.8125 47.609375 11.28125 51.796875 
Q 16.75 56 26.8125 56 
Q 31.78125 56 36.171875 55.265625 
Q 40.578125 54.546875 44.28125 53.078125 
z
" id="DejaVuSans-115"/>
       <path d="M 48.78125 52.59375 
L 48.78125 44.1875 
Q 44.96875 46.296875 41.140625 47.34375 
Q 37.3125 48.390625 33.40625 48.390625 
Q 24.65625 48.390625 19.8125 42.84375 
Q 14.984375 37.3125 14.984375 27.296875 
Q 14.984375 17.28125 19.8125 11.734375 
Q 24.65625 6.203125 33.40625 6.203125 
Q 37.3125 6.203125 41.140625 7.25 
Q 44.96875 8.296875 48.78125 10.40625 
L 48.78125 2.09375 
Q 45.015625 0.34375 40.984375 -0.53125 
Q 36.96875 -1.421875 32.421875 -1.421875 
Q 20.0625 -1.421875 12.78125 6.34375 
Q 5.515625 14.109375 5.515625 27.296875 
Q 5.515625 40.671875 12.859375 48.328125 
Q 20.21875 56 33.015625 56 
Q 37.15625 56 41.109375 55.140625 
Q 45.0625 54.296875 48.78125 52.59375 
z
" id="DejaVuSans-99"/>
       <path d="M 54.890625 33.015625 
L 54.890625 0 
L 45.90625 0 
L 45.90625 32.71875 
Q 45.90625 40.484375 42.875 44.328125 
Q 39.84375 48.1875 33.796875 48.1875 
Q 26.515625 48.1875 22.3125 43.546875 
Q 18.109375 38.921875 18.109375 30.90625 
L 18.109375 0 
L 9.078125 0 
L 9.078125 54.6875 
L 18.109375 54.6875 
L 18.109375 46.1875 
Q 21.34375 51.125 25.703125 53.5625 
Q 30.078125 56 35.796875 56 
Q 45.21875 56 50.046875 50.171875 
Q 54.890625 44.34375 54.890625 33.015625 
z
" id="DejaVuSans-110"/>
      </defs>
      <use xlink:href="#DejaVuSans-78"/>
      <use x="74.804688" xlink:href="#DejaVuSans-117"/>
      <use x="138.183594" xlink:href="#DejaVuSans-109"/>
      <use x="235.595703" xlink:href="#DejaVuSans-98"/>
      <use x="299.072266" xlink:href="#DejaVuSans-101"/>
      <use x="360.595703" xlink:href="#DejaVuSans-114"/>
      <use x="401.708984" xlink:href="#DejaVuSans-32"/>
      <use x="433.496094" xlink:href="#DejaVuSans-111"/>
      <use x="494.677734" xlink:href="#DejaVuSans-102"/>
      <use x="529.882812" xlink:href="#DejaVuSans-32"/>
      <use x="561.669922" xlink:href="#DejaVuSans-115"/>
      <use x="613.769531" xlink:href="#DejaVuSans-101"/>
      <use x="675.292969" xlink:href="#DejaVuSans-99"/>
      <use x="730.273438" xlink:href="#DejaVuSans-111"/>
      <use x="791.455078" xlink:href="#DejaVuSans-110"/>
      <use x="854.833984" xlink:href="#DejaVuSans-100"/>
      <use x="918.310547" xlink:href="#DejaVuSans-115"/>
      <use x="970.410156" xlink:href="#DejaVuSans-32"/>
      <use x="1002.197266" xlink:href="#DejaVuSans-110"/>
      <use x="1065.576172" xlink:href="#DejaVuSans-101"/>
      <use x="1127.099609" xlink:href="#DejaVuSans-101"/>
      <use x="1188.623047" xlink:href="#DejaVuSans-100"/>
      <use x="1252.099609" xlink:href="#DejaVuSans-101"/>
      <use x="1313.623047" xlink:href="#DejaVuSans-100"/>
     </g>
    </g>
   </g>
   <g id="line2d_14">
    <path clip-path="url(#p6bdc444ef3)" d="M 110.665994 165.756802 
L 119.889135 170.242141 
L 129.112275 184.61545 
L 138.335416 196.092429 
L 147.558556 196.106875 
L 156.781697 231.332316 
L 166.004837 226.428057 
L 175.227978 196.106875 
L 184.451118 165.684574 
L 193.674259 226.428057 
L 202.897399 196.099652 
L 212.12054 226.428057 
L 221.34368 226.38472 
L 230.566821 196.099652 
L 239.789961 256.749239 
L 249.013102 213.333177 
L 258.236242 204.218044 
L 267.459383 196.085206 
L 276.682523 226.413611 
L 285.905664 226.442502 
L 295.128804 200.881125 
L 304.351945 142.282804 
L 313.575085 226.399166 
L 322.798226 196.049092 
L 332.021366 196.092429 
L 341.244507 226.420834 
L 350.467647 196.106875 
L 359.690788 212.480891 
L 368.913928 226.428057 
L 378.137069 196.12132 
L 387.360209 206.919359 
L 396.58335 226.399166 
L 405.80649 226.435279 
L 415.029631 226.435279 
" style="fill:none;stroke:#1f77b4;stroke-linecap:square;stroke-width:1.5;"/>
    <defs>
     <path d="M 0 3 
C 0.795609 3 1.55874 2.683901 2.12132 2.12132 
C 2.683901 1.55874 3 0.795609 3 0 
C 3 -0.795609 2.683901 -1.55874 2.12132 -2.12132 
C 1.55874 -2.683901 0.795609 -3 0 -3 
C -0.795609 -3 -1.55874 -2.683901 -2.12132 -2.12132 
C -2.683901 -1.55874 -3 -0.795609 -3 0 
C -3 0.795609 -2.683901 1.55874 -2.12132 2.12132 
C -1.55874 2.683901 -0.795609 3 0 3 
z
" id="me6db034838" style="stroke:#1f77b4;"/>
    </defs>
    <g clip-path="url(#p6bdc444ef3)">
     <use style="fill:#1f77b4;stroke:#1f77b4;" x="110.665994" xlink:href="#me6db034838" y="165.756802"/>
     <use style="fill:#1f77b4;stroke:#1f77b4;" x="119.889135" xlink:href="#me6db034838" y="170.242141"/>
     <use style="fill:#1f77b4;stroke:#1f77b4;" x="129.112275" xlink:href="#me6db034838" y="184.61545"/>
     <use style="fill:#1f77b4;stroke:#1f77b4;" x="138.335416" xlink:href="#me6db034838" y="196.092429"/>
     <use style="fill:#1f77b4;stroke:#1f77b4;" x="147.558556" xlink:href="#me6db034838" y="196.106875"/>
     <use style="fill:#1f77b4;stroke:#1f77b4;" x="156.781697" xlink:href="#me6db034838" y="231.332316"/>
     <use style="fill:#1f77b4;stroke:#1f77b4;" x="166.004837" xlink:href="#me6db034838" y="226.428057"/>
     <use style="fill:#1f77b4;stroke:#1f77b4;" x="175.227978" xlink:href="#me6db034838" y="196.106875"/>
     <use style="fill:#1f77b4;stroke:#1f77b4;" x="184.451118" xlink:href="#me6db034838" y="165.684574"/>
     <use style="fill:#1f77b4;stroke:#1f77b4;" x="193.674259" xlink:href="#me6db034838" y="226.428057"/>
     <use style="fill:#1f77b4;stroke:#1f77b4;" x="202.897399" xlink:href="#me6db034838" y="196.099652"/>
     <use style="fill:#1f77b4;stroke:#1f77b4;" x="212.12054" xlink:href="#me6db034838" y="226.428057"/>
     <use style="fill:#1f77b4;stroke:#1f77b4;" x="221.34368" xlink:href="#me6db034838" y="226.38472"/>
     <use style="fill:#1f77b4;stroke:#1f77b4;" x="230.566821" xlink:href="#me6db034838" y="196.099652"/>
     <use style="fill:#1f77b4;stroke:#1f77b4;" x="239.789961" xlink:href="#me6db034838" y="256.749239"/>
     <use style="fill:#1f77b4;stroke:#1f77b4;" x="249.013102" xlink:href="#me6db034838" y="213.333177"/>
     <use style="fill:#1f77b4;stroke:#1f77b4;" x="258.236242" xlink:href="#me6db034838" y="204.218044"/>
     <use style="fill:#1f77b4;stroke:#1f77b4;" x="267.459383" xlink:href="#me6db034838" y="196.085206"/>
     <use style="fill:#1f77b4;stroke:#1f77b4;" x="276.682523" xlink:href="#me6db034838" y="226.413611"/>
     <use style="fill:#1f77b4;stroke:#1f77b4;" x="285.905664" xlink:href="#me6db034838" y="226.442502"/>
     <use style="fill:#1f77b4;stroke:#1f77b4;" x="295.128804" xlink:href="#me6db034838" y="200.881125"/>
     <use style="fill:#1f77b4;stroke:#1f77b4;" x="304.351945" xlink:href="#me6db034838" y="142.282804"/>
     <use style="fill:#1f77b4;stroke:#1f77b4;" x="313.575085" xlink:href="#me6db034838" y="226.399166"/>
     <use style="fill:#1f77b4;stroke:#1f77b4;" x="322.798226" xlink:href="#me6db034838" y="196.049092"/>
     <use style="fill:#1f77b4;stroke:#1f77b4;" x="332.021366" xlink:href="#me6db034838" y="196.092429"/>
     <use style="fill:#1f77b4;stroke:#1f77b4;" x="341.244507" xlink:href="#me6db034838" y="226.420834"/>
     <use style="fill:#1f77b4;stroke:#1f77b4;" x="350.467647" xlink:href="#me6db034838" y="196.106875"/>
     <use style="fill:#1f77b4;stroke:#1f77b4;" x="359.690788" xlink:href="#me6db034838" y="212.480891"/>
     <use style="fill:#1f77b4;stroke:#1f77b4;" x="368.913928" xlink:href="#me6db034838" y="226.428057"/>
     <use style="fill:#1f77b4;stroke:#1f77b4;" x="378.137069" xlink:href="#me6db034838" y="196.12132"/>
     <use style="fill:#1f77b4;stroke:#1f77b4;" x="387.360209" xlink:href="#me6db034838" y="206.919359"/>
     <use style="fill:#1f77b4;stroke:#1f77b4;" x="396.58335" xlink:href="#me6db034838" y="226.399166"/>
     <use style="fill:#1f77b4;stroke:#1f77b4;" x="405.80649" xlink:href="#me6db034838" y="226.435279"/>
     <use style="fill:#1f77b4;stroke:#1f77b4;" x="415.029631" xlink:href="#me6db034838" y="226.435279"/>
    </g>
   </g>
   <g id="line2d_15">
    <path clip-path="url(#p6bdc444ef3)" d="M 110.665994 105.114438 
L 119.889135 124.774813 
L 129.112275 140.318211 
L 138.335416 149.715033 
L 147.558556 135.450065 
L 156.781697 135.421174 
L 166.004837 135.348946 
L 175.227978 165.121198 
L 184.451118 138.685865 
L 193.674259 91.282836 
L 202.897399 168.234211 
L 212.12054 135.464511 
L 221.34368 142.997858 
L 230.566821 165.749579 
L 239.789961 59.076511 
L 249.013102 134.684452 
L 258.236242 114.677383 
L 267.459383 135.464511 
L 276.682523 135.471733 
L 285.905664 135.464511 
L 295.128804 144.095719 
L 304.351945 135.38506 
L 313.575085 135.450065 
L 322.798226 153.311971 
L 332.021366 131.910909 
L 341.244507 135.464511 
L 350.467647 135.442842 
L 359.690788 165.756802 
L 368.913928 135.457288 
L 378.137069 151.903532 
L 387.360209 142.131126 
L 396.58335 146.768143 
L 405.80649 165.77847 
L 415.029631 226.420834 
" style="fill:none;stroke:#ff7f0e;stroke-linecap:square;stroke-width:1.5;"/>
    <defs>
     <path d="M 0 3 
C 0.795609 3 1.55874 2.683901 2.12132 2.12132 
C 2.683901 1.55874 3 0.795609 3 0 
C 3 -0.795609 2.683901 -1.55874 2.12132 -2.12132 
C 1.55874 -2.683901 0.795609 -3 0 -3 
C -0.795609 -3 -1.55874 -2.683901 -2.12132 -2.12132 
C -2.683901 -1.55874 -3 -0.795609 -3 0 
C -3 0.795609 -2.683901 1.55874 -2.12132 2.12132 
C -1.55874 2.683901 -0.795609 3 0 3 
z
" id="mcc860e1507" style="stroke:#ff7f0e;"/>
    </defs>
    <g clip-path="url(#p6bdc444ef3)">
     <use style="fill:#ff7f0e;stroke:#ff7f0e;" x="110.665994" xlink:href="#mcc860e1507" y="105.114438"/>
     <use style="fill:#ff7f0e;stroke:#ff7f0e;" x="119.889135" xlink:href="#mcc860e1507" y="124.774813"/>
     <use style="fill:#ff7f0e;stroke:#ff7f0e;" x="129.112275" xlink:href="#mcc860e1507" y="140.318211"/>
     <use style="fill:#ff7f0e;stroke:#ff7f0e;" x="138.335416" xlink:href="#mcc860e1507" y="149.715033"/>
     <use style="fill:#ff7f0e;stroke:#ff7f0e;" x="147.558556" xlink:href="#mcc860e1507" y="135.450065"/>
     <use style="fill:#ff7f0e;stroke:#ff7f0e;" x="156.781697" xlink:href="#mcc860e1507" y="135.421174"/>
     <use style="fill:#ff7f0e;stroke:#ff7f0e;" x="166.004837" xlink:href="#mcc860e1507" y="135.348946"/>
     <use style="fill:#ff7f0e;stroke:#ff7f0e;" x="175.227978" xlink:href="#mcc860e1507" y="165.121198"/>
     <use style="fill:#ff7f0e;stroke:#ff7f0e;" x="184.451118" xlink:href="#mcc860e1507" y="138.685865"/>
     <use style="fill:#ff7f0e;stroke:#ff7f0e;" x="193.674259" xlink:href="#mcc860e1507" y="91.282836"/>
     <use style="fill:#ff7f0e;stroke:#ff7f0e;" x="202.897399" xlink:href="#mcc860e1507" y="168.234211"/>
     <use style="fill:#ff7f0e;stroke:#ff7f0e;" x="212.12054" xlink:href="#mcc860e1507" y="135.464511"/>
     <use style="fill:#ff7f0e;stroke:#ff7f0e;" x="221.34368" xlink:href="#mcc860e1507" y="142.997858"/>
     <use style="fill:#ff7f0e;stroke:#ff7f0e;" x="230.566821" xlink:href="#mcc860e1507" y="165.749579"/>
     <use style="fill:#ff7f0e;stroke:#ff7f0e;" x="239.789961" xlink:href="#mcc860e1507" y="59.076511"/>
     <use style="fill:#ff7f0e;stroke:#ff7f0e;" x="249.013102" xlink:href="#mcc860e1507" y="134.684452"/>
     <use style="fill:#ff7f0e;stroke:#ff7f0e;" x="258.236242" xlink:href="#mcc860e1507" y="114.677383"/>
     <use style="fill:#ff7f0e;stroke:#ff7f0e;" x="267.459383" xlink:href="#mcc860e1507" y="135.464511"/>
     <use style="fill:#ff7f0e;stroke:#ff7f0e;" x="276.682523" xlink:href="#mcc860e1507" y="135.471733"/>
     <use style="fill:#ff7f0e;stroke:#ff7f0e;" x="285.905664" xlink:href="#mcc860e1507" y="135.464511"/>
     <use style="fill:#ff7f0e;stroke:#ff7f0e;" x="295.128804" xlink:href="#mcc860e1507" y="144.095719"/>
     <use style="fill:#ff7f0e;stroke:#ff7f0e;" x="304.351945" xlink:href="#mcc860e1507" y="135.38506"/>
     <use style="fill:#ff7f0e;stroke:#ff7f0e;" x="313.575085" xlink:href="#mcc860e1507" y="135.450065"/>
     <use style="fill:#ff7f0e;stroke:#ff7f0e;" x="322.798226" xlink:href="#mcc860e1507" y="153.311971"/>
     <use style="fill:#ff7f0e;stroke:#ff7f0e;" x="332.021366" xlink:href="#mcc860e1507" y="131.910909"/>
     <use style="fill:#ff7f0e;stroke:#ff7f0e;" x="341.244507" xlink:href="#mcc860e1507" y="135.464511"/>
     <use style="fill:#ff7f0e;stroke:#ff7f0e;" x="350.467647" xlink:href="#mcc860e1507" y="135.442842"/>
     <use style="fill:#ff7f0e;stroke:#ff7f0e;" x="359.690788" xlink:href="#mcc860e1507" y="165.756802"/>
     <use style="fill:#ff7f0e;stroke:#ff7f0e;" x="368.913928" xlink:href="#mcc860e1507" y="135.457288"/>
     <use style="fill:#ff7f0e;stroke:#ff7f0e;" x="378.137069" xlink:href="#mcc860e1507" y="151.903532"/>
     <use style="fill:#ff7f0e;stroke:#ff7f0e;" x="387.360209" xlink:href="#mcc860e1507" y="142.131126"/>
     <use style="fill:#ff7f0e;stroke:#ff7f0e;" x="396.58335" xlink:href="#mcc860e1507" y="146.768143"/>
     <use style="fill:#ff7f0e;stroke:#ff7f0e;" x="405.80649" xlink:href="#mcc860e1507" y="165.77847"/>
     <use style="fill:#ff7f0e;stroke:#ff7f0e;" x="415.029631" xlink:href="#mcc860e1507" y="226.420834"/>
    </g>
   </g>
   <g id="line2d_16">
    <path clip-path="url(#p6bdc444ef3)" d="M 110.665994 210.509075 
L 119.889135 196.092429 
L 129.112275 195.095687 
L 138.335416 226.449725 
L 147.558556 196.106875 
L 156.781697 196.106875 
L 166.004837 226.435279 
L 175.227978 256.749239 
L 184.451118 196.12132 
L 193.674259 226.435279 
L 202.897399 188.587973 
L 212.12054 189.014116 
L 221.34368 196.092429 
L 230.566821 226.428057 
L 239.789961 195.218474 
L 249.013102 226.46417 
L 258.236242 226.449725 
L 267.459383 197.255295 
L 276.682523 196.092429 
L 285.905664 196.099652 
L 295.128804 256.749239 
L 304.351945 189.591937 
L 313.575085 205.308682 
L 322.798226 196.179102 
L 332.021366 196.106875 
L 341.244507 196.099652 
L 350.467647 175.110287 
L 359.690788 165.77847 
L 368.913928 212.32199 
L 378.137069 196.150211 
L 387.360209 196.099652 
L 396.58335 196.099652 
L 405.80649 196.085206 
L 415.029631 203.929133 
" style="fill:none;stroke:#2ca02c;stroke-linecap:square;stroke-width:1.5;"/>
    <defs>
     <path d="M 0 3 
C 0.795609 3 1.55874 2.683901 2.12132 2.12132 
C 2.683901 1.55874 3 0.795609 3 0 
C 3 -0.795609 2.683901 -1.55874 2.12132 -2.12132 
C 1.55874 -2.683901 0.795609 -3 0 -3 
C -0.795609 -3 -1.55874 -2.683901 -2.12132 -2.12132 
C -2.683901 -1.55874 -3 -0.795609 -3 0 
C -3 0.795609 -2.683901 1.55874 -2.12132 2.12132 
C -1.55874 2.683901 -0.795609 3 0 3 
z
" id="ma515fed77e" style="stroke:#2ca02c;"/>
    </defs>
    <g clip-path="url(#p6bdc444ef3)">
     <use style="fill:#2ca02c;stroke:#2ca02c;" x="110.665994" xlink:href="#ma515fed77e" y="210.509075"/>
     <use style="fill:#2ca02c;stroke:#2ca02c;" x="119.889135" xlink:href="#ma515fed77e" y="196.092429"/>
     <use style="fill:#2ca02c;stroke:#2ca02c;" x="129.112275" xlink:href="#ma515fed77e" y="195.095687"/>
     <use style="fill:#2ca02c;stroke:#2ca02c;" x="138.335416" xlink:href="#ma515fed77e" y="226.449725"/>
     <use style="fill:#2ca02c;stroke:#2ca02c;" x="147.558556" xlink:href="#ma515fed77e" y="196.106875"/>
     <use style="fill:#2ca02c;stroke:#2ca02c;" x="156.781697" xlink:href="#ma515fed77e" y="196.106875"/>
     <use style="fill:#2ca02c;stroke:#2ca02c;" x="166.004837" xlink:href="#ma515fed77e" y="226.435279"/>
     <use style="fill:#2ca02c;stroke:#2ca02c;" x="175.227978" xlink:href="#ma515fed77e" y="256.749239"/>
     <use style="fill:#2ca02c;stroke:#2ca02c;" x="184.451118" xlink:href="#ma515fed77e" y="196.12132"/>
     <use style="fill:#2ca02c;stroke:#2ca02c;" x="193.674259" xlink:href="#ma515fed77e" y="226.435279"/>
     <use style="fill:#2ca02c;stroke:#2ca02c;" x="202.897399" xlink:href="#ma515fed77e" y="188.587973"/>
     <use style="fill:#2ca02c;stroke:#2ca02c;" x="212.12054" xlink:href="#ma515fed77e" y="189.014116"/>
     <use style="fill:#2ca02c;stroke:#2ca02c;" x="221.34368" xlink:href="#ma515fed77e" y="196.092429"/>
     <use style="fill:#2ca02c;stroke:#2ca02c;" x="230.566821" xlink:href="#ma515fed77e" y="226.428057"/>
     <use style="fill:#2ca02c;stroke:#2ca02c;" x="239.789961" xlink:href="#ma515fed77e" y="195.218474"/>
     <use style="fill:#2ca02c;stroke:#2ca02c;" x="249.013102" xlink:href="#ma515fed77e" y="226.46417"/>
     <use style="fill:#2ca02c;stroke:#2ca02c;" x="258.236242" xlink:href="#ma515fed77e" y="226.449725"/>
     <use style="fill:#2ca02c;stroke:#2ca02c;" x="267.459383" xlink:href="#ma515fed77e" y="197.255295"/>
     <use style="fill:#2ca02c;stroke:#2ca02c;" x="276.682523" xlink:href="#ma515fed77e" y="196.092429"/>
     <use style="fill:#2ca02c;stroke:#2ca02c;" x="285.905664" xlink:href="#ma515fed77e" y="196.099652"/>
     <use style="fill:#2ca02c;stroke:#2ca02c;" x="295.128804" xlink:href="#ma515fed77e" y="256.749239"/>
     <use style="fill:#2ca02c;stroke:#2ca02c;" x="304.351945" xlink:href="#ma515fed77e" y="189.591937"/>
     <use style="fill:#2ca02c;stroke:#2ca02c;" x="313.575085" xlink:href="#ma515fed77e" y="205.308682"/>
     <use style="fill:#2ca02c;stroke:#2ca02c;" x="322.798226" xlink:href="#ma515fed77e" y="196.179102"/>
     <use style="fill:#2ca02c;stroke:#2ca02c;" x="332.021366" xlink:href="#ma515fed77e" y="196.106875"/>
     <use style="fill:#2ca02c;stroke:#2ca02c;" x="341.244507" xlink:href="#ma515fed77e" y="196.099652"/>
     <use style="fill:#2ca02c;stroke:#2ca02c;" x="350.467647" xlink:href="#ma515fed77e" y="175.110287"/>
     <use style="fill:#2ca02c;stroke:#2ca02c;" x="359.690788" xlink:href="#ma515fed77e" y="165.77847"/>
     <use style="fill:#2ca02c;stroke:#2ca02c;" x="368.913928" xlink:href="#ma515fed77e" y="212.32199"/>
     <use style="fill:#2ca02c;stroke:#2ca02c;" x="378.137069" xlink:href="#ma515fed77e" y="196.150211"/>
     <use style="fill:#2ca02c;stroke:#2ca02c;" x="387.360209" xlink:href="#ma515fed77e" y="196.099652"/>
     <use style="fill:#2ca02c;stroke:#2ca02c;" x="396.58335" xlink:href="#ma515fed77e" y="196.099652"/>
     <use style="fill:#2ca02c;stroke:#2ca02c;" x="405.80649" xlink:href="#ma515fed77e" y="196.085206"/>
     <use style="fill:#2ca02c;stroke:#2ca02c;" x="415.029631" xlink:href="#ma515fed77e" y="203.929133"/>
    </g>
   </g>
   <g id="patch_3">
    <path d="M 95.447812 266.632875 
L 95.447812 49.192875 
" style="fill:none;stroke:#000000;stroke-linecap:square;stroke-linejoin:miter;stroke-width:0.8;"/>
   </g>
   <g id="patch_4">
    <path d="M 430.247813 266.632875 
L 430.247813 49.192875 
" style="fill:none;stroke:#000000;stroke-linecap:square;stroke-linejoin:miter;stroke-width:0.8;"/>
   </g>
   <g id="patch_5">
    <path d="M 95.447812 266.632875 
L 430.247813 266.632875 
" style="fill:none;stroke:#000000;stroke-linecap:square;stroke-linejoin:miter;stroke-width:0.8;"/>
   </g>
   <g id="patch_6">
    <path d="M 95.447812 49.192875 
L 430.247813 49.192875 
" style="fill:none;stroke:#000000;stroke-linecap:square;stroke-linejoin:miter;stroke-width:0.8;"/>
   </g>
   <g id="text_16">
    <!-- Fig. 4, Example 4.30.  -->
    <g transform="translate(197.799375 16.318125)scale(0.12 -0.12)">
     <defs>
      <path d="M 9.8125 72.90625 
L 51.703125 72.90625 
L 51.703125 64.59375 
L 19.671875 64.59375 
L 19.671875 43.109375 
L 48.578125 43.109375 
L 48.578125 34.8125 
L 19.671875 34.8125 
L 19.671875 0 
L 9.8125 0 
z
" id="DejaVuSans-70"/>
      <path d="M 9.421875 54.6875 
L 18.40625 54.6875 
L 18.40625 0 
L 9.421875 0 
z
M 9.421875 75.984375 
L 18.40625 75.984375 
L 18.40625 64.59375 
L 9.421875 64.59375 
z
" id="DejaVuSans-105"/>
      <path d="M 45.40625 27.984375 
Q 45.40625 37.75 41.375 43.109375 
Q 37.359375 48.484375 30.078125 48.484375 
Q 22.859375 48.484375 18.828125 43.109375 
Q 14.796875 37.75 14.796875 27.984375 
Q 14.796875 18.265625 18.828125 12.890625 
Q 22.859375 7.515625 30.078125 7.515625 
Q 37.359375 7.515625 41.375 12.890625 
Q 45.40625 18.265625 45.40625 27.984375 
z
M 54.390625 6.78125 
Q 54.390625 -7.171875 48.1875 -13.984375 
Q 42 -20.796875 29.203125 -20.796875 
Q 24.46875 -20.796875 20.265625 -20.09375 
Q 16.0625 -19.390625 12.109375 -17.921875 
L 12.109375 -9.1875 
Q 16.0625 -11.328125 19.921875 -12.34375 
Q 23.78125 -13.375 27.78125 -13.375 
Q 36.625 -13.375 41.015625 -8.765625 
Q 45.40625 -4.15625 45.40625 5.171875 
L 45.40625 9.625 
Q 42.625 4.78125 38.28125 2.390625 
Q 33.9375 0 27.875 0 
Q 17.828125 0 11.671875 7.65625 
Q 5.515625 15.328125 5.515625 27.984375 
Q 5.515625 40.671875 11.671875 48.328125 
Q 17.828125 56 27.875 56 
Q 33.9375 56 38.28125 53.609375 
Q 42.625 51.21875 45.40625 46.390625 
L 45.40625 54.6875 
L 54.390625 54.6875 
z
" id="DejaVuSans-103"/>
      <path d="M 11.71875 12.40625 
L 22.015625 12.40625 
L 22.015625 4 
L 14.015625 -11.625 
L 7.71875 -11.625 
L 11.71875 4 
z
" id="DejaVuSans-44"/>
      <path d="M 9.8125 72.90625 
L 55.90625 72.90625 
L 55.90625 64.59375 
L 19.671875 64.59375 
L 19.671875 43.015625 
L 54.390625 43.015625 
L 54.390625 34.71875 
L 19.671875 34.71875 
L 19.671875 8.296875 
L 56.78125 8.296875 
L 56.78125 0 
L 9.8125 0 
z
" id="DejaVuSans-69"/>
      <path d="M 54.890625 54.6875 
L 35.109375 28.078125 
L 55.90625 0 
L 45.3125 0 
L 29.390625 21.484375 
L 13.484375 0 
L 2.875 0 
L 24.125 28.609375 
L 4.6875 54.6875 
L 15.28125 54.6875 
L 29.78125 35.203125 
L 44.28125 54.6875 
z
" id="DejaVuSans-120"/>
      <path d="M 18.109375 8.203125 
L 18.109375 -20.796875 
L 9.078125 -20.796875 
L 9.078125 54.6875 
L 18.109375 54.6875 
L 18.109375 46.390625 
Q 20.953125 51.265625 25.265625 53.625 
Q 29.59375 56 35.59375 56 
Q 45.5625 56 51.78125 48.09375 
Q 58.015625 40.1875 58.015625 27.296875 
Q 58.015625 14.40625 51.78125 6.484375 
Q 45.5625 -1.421875 35.59375 -1.421875 
Q 29.59375 -1.421875 25.265625 0.953125 
Q 20.953125 3.328125 18.109375 8.203125 
z
M 48.6875 27.296875 
Q 48.6875 37.203125 44.609375 42.84375 
Q 40.53125 48.484375 33.40625 48.484375 
Q 26.265625 48.484375 22.1875 42.84375 
Q 18.109375 37.203125 18.109375 27.296875 
Q 18.109375 17.390625 22.1875 11.75 
Q 26.265625 6.109375 33.40625 6.109375 
Q 40.53125 6.109375 44.609375 11.75 
Q 48.6875 17.390625 48.6875 27.296875 
z
" id="DejaVuSans-112"/>
     </defs>
     <use xlink:href="#DejaVuSans-70"/>
     <use x="50.269531" xlink:href="#DejaVuSans-105"/>
     <use x="78.052734" xlink:href="#DejaVuSans-103"/>
     <use x="141.529297" xlink:href="#DejaVuSans-46"/>
     <use x="173.316406" xlink:href="#DejaVuSans-32"/>
     <use x="205.103516" xlink:href="#DejaVuSans-52"/>
     <use x="268.726562" xlink:href="#DejaVuSans-44"/>
     <use x="300.513672" xlink:href="#DejaVuSans-32"/>
     <use x="332.300781" xlink:href="#DejaVuSans-69"/>
     <use x="395.484375" xlink:href="#DejaVuSans-120"/>
     <use x="454.664062" xlink:href="#DejaVuSans-97"/>
     <use x="515.943359" xlink:href="#DejaVuSans-109"/>
     <use x="613.355469" xlink:href="#DejaVuSans-112"/>
     <use x="676.832031" xlink:href="#DejaVuSans-108"/>
     <use x="704.615234" xlink:href="#DejaVuSans-101"/>
     <use x="766.138672" xlink:href="#DejaVuSans-32"/>
     <use x="797.925781" xlink:href="#DejaVuSans-52"/>
     <use x="861.548828" xlink:href="#DejaVuSans-46"/>
     <use x="893.335938" xlink:href="#DejaVuSans-51"/>
     <use x="956.958984" xlink:href="#DejaVuSans-48"/>
     <use x="1020.582031" xlink:href="#DejaVuSans-46"/>
     <use x="1052.369141" xlink:href="#DejaVuSans-32"/>
    </g>
    <!--  Number of seconds needed to approximate the solution up to an accuracy of 10^-4, -->
    <g transform="translate(7.2 29.7555)scale(0.12 -0.12)">
     <defs>
      <path d="M 54.890625 33.015625 
L 54.890625 0 
L 45.90625 0 
L 45.90625 32.71875 
Q 45.90625 40.484375 42.875 44.328125 
Q 39.84375 48.1875 33.796875 48.1875 
Q 26.515625 48.1875 22.3125 43.546875 
Q 18.109375 38.921875 18.109375 30.90625 
L 18.109375 0 
L 9.078125 0 
L 9.078125 75.984375 
L 18.109375 75.984375 
L 18.109375 46.1875 
Q 21.34375 51.125 25.703125 53.5625 
Q 30.078125 56 35.796875 56 
Q 45.21875 56 50.046875 50.171875 
Q 54.890625 44.34375 54.890625 33.015625 
z
" id="DejaVuSans-104"/>
      <path d="M 32.171875 -5.078125 
Q 28.375 -14.84375 24.75 -17.8125 
Q 21.140625 -20.796875 15.09375 -20.796875 
L 7.90625 -20.796875 
L 7.90625 -13.28125 
L 13.1875 -13.28125 
Q 16.890625 -13.28125 18.9375 -11.515625 
Q 21 -9.765625 23.484375 -3.21875 
L 25.09375 0.875 
L 2.984375 54.6875 
L 12.5 54.6875 
L 29.59375 11.921875 
L 46.6875 54.6875 
L 56.203125 54.6875 
z
" id="DejaVuSans-121"/>
      <path d="M 46.6875 72.90625 
L 73.1875 45.703125 
L 63.375 45.703125 
L 41.890625 64.984375 
L 20.40625 45.703125 
L 10.59375 45.703125 
L 37.109375 72.90625 
z
" id="DejaVuSans-94"/>
      <path d="M 4.890625 31.390625 
L 31.203125 31.390625 
L 31.203125 23.390625 
L 4.890625 23.390625 
z
" id="DejaVuSans-45"/>
     </defs>
     <use xlink:href="#DejaVuSans-32"/>
     <use x="31.787109" xlink:href="#DejaVuSans-78"/>
     <use x="106.591797" xlink:href="#DejaVuSans-117"/>
     <use x="169.970703" xlink:href="#DejaVuSans-109"/>
     <use x="267.382812" xlink:href="#DejaVuSans-98"/>
     <use x="330.859375" xlink:href="#DejaVuSans-101"/>
     <use x="392.382812" xlink:href="#DejaVuSans-114"/>
     <use x="433.496094" xlink:href="#DejaVuSans-32"/>
     <use x="465.283203" xlink:href="#DejaVuSans-111"/>
     <use x="526.464844" xlink:href="#DejaVuSans-102"/>
     <use x="561.669922" xlink:href="#DejaVuSans-32"/>
     <use x="593.457031" xlink:href="#DejaVuSans-115"/>
     <use x="645.556641" xlink:href="#DejaVuSans-101"/>
     <use x="707.080078" xlink:href="#DejaVuSans-99"/>
     <use x="762.060547" xlink:href="#DejaVuSans-111"/>
     <use x="823.242188" xlink:href="#DejaVuSans-110"/>
     <use x="886.621094" xlink:href="#DejaVuSans-100"/>
     <use x="950.097656" xlink:href="#DejaVuSans-115"/>
     <use x="1002.197266" xlink:href="#DejaVuSans-32"/>
     <use x="1033.984375" xlink:href="#DejaVuSans-110"/>
     <use x="1097.363281" xlink:href="#DejaVuSans-101"/>
     <use x="1158.886719" xlink:href="#DejaVuSans-101"/>
     <use x="1220.410156" xlink:href="#DejaVuSans-100"/>
     <use x="1283.886719" xlink:href="#DejaVuSans-101"/>
     <use x="1345.410156" xlink:href="#DejaVuSans-100"/>
     <use x="1408.886719" xlink:href="#DejaVuSans-32"/>
     <use x="1440.673828" xlink:href="#DejaVuSans-116"/>
     <use x="1479.882812" xlink:href="#DejaVuSans-111"/>
     <use x="1541.064453" xlink:href="#DejaVuSans-32"/>
     <use x="1572.851562" xlink:href="#DejaVuSans-97"/>
     <use x="1634.130859" xlink:href="#DejaVuSans-112"/>
     <use x="1697.607422" xlink:href="#DejaVuSans-112"/>
     <use x="1761.083984" xlink:href="#DejaVuSans-114"/>
     <use x="1799.947266" xlink:href="#DejaVuSans-111"/>
     <use x="1858.003906" xlink:href="#DejaVuSans-120"/>
     <use x="1917.183594" xlink:href="#DejaVuSans-105"/>
     <use x="1944.966797" xlink:href="#DejaVuSans-109"/>
     <use x="2042.378906" xlink:href="#DejaVuSans-97"/>
     <use x="2103.658203" xlink:href="#DejaVuSans-116"/>
     <use x="2142.867188" xlink:href="#DejaVuSans-101"/>
     <use x="2204.390625" xlink:href="#DejaVuSans-32"/>
     <use x="2236.177734" xlink:href="#DejaVuSans-116"/>
     <use x="2275.386719" xlink:href="#DejaVuSans-104"/>
     <use x="2338.765625" xlink:href="#DejaVuSans-101"/>
     <use x="2400.289062" xlink:href="#DejaVuSans-32"/>
     <use x="2432.076172" xlink:href="#DejaVuSans-115"/>
     <use x="2484.175781" xlink:href="#DejaVuSans-111"/>
     <use x="2545.357422" xlink:href="#DejaVuSans-108"/>
     <use x="2573.140625" xlink:href="#DejaVuSans-117"/>
     <use x="2636.519531" xlink:href="#DejaVuSans-116"/>
     <use x="2675.728516" xlink:href="#DejaVuSans-105"/>
     <use x="2703.511719" xlink:href="#DejaVuSans-111"/>
     <use x="2764.693359" xlink:href="#DejaVuSans-110"/>
     <use x="2828.072266" xlink:href="#DejaVuSans-32"/>
     <use x="2859.859375" xlink:href="#DejaVuSans-117"/>
     <use x="2923.238281" xlink:href="#DejaVuSans-112"/>
     <use x="2986.714844" xlink:href="#DejaVuSans-32"/>
     <use x="3018.501953" xlink:href="#DejaVuSans-116"/>
     <use x="3057.710938" xlink:href="#DejaVuSans-111"/>
     <use x="3118.892578" xlink:href="#DejaVuSans-32"/>
     <use x="3150.679688" xlink:href="#DejaVuSans-97"/>
     <use x="3211.958984" xlink:href="#DejaVuSans-110"/>
     <use x="3275.337891" xlink:href="#DejaVuSans-32"/>
     <use x="3307.125" xlink:href="#DejaVuSans-97"/>
     <use x="3368.404297" xlink:href="#DejaVuSans-99"/>
     <use x="3423.384766" xlink:href="#DejaVuSans-99"/>
     <use x="3478.365234" xlink:href="#DejaVuSans-117"/>
     <use x="3541.744141" xlink:href="#DejaVuSans-114"/>
     <use x="3582.857422" xlink:href="#DejaVuSans-97"/>
     <use x="3644.136719" xlink:href="#DejaVuSans-99"/>
     <use x="3699.117188" xlink:href="#DejaVuSans-121"/>
     <use x="3758.296875" xlink:href="#DejaVuSans-32"/>
     <use x="3790.083984" xlink:href="#DejaVuSans-111"/>
     <use x="3851.265625" xlink:href="#DejaVuSans-102"/>
     <use x="3886.470703" xlink:href="#DejaVuSans-32"/>
     <use x="3918.257812" xlink:href="#DejaVuSans-49"/>
     <use x="3981.880859" xlink:href="#DejaVuSans-48"/>
     <use x="4045.503906" xlink:href="#DejaVuSans-94"/>
     <use x="4129.292969" xlink:href="#DejaVuSans-45"/>
     <use x="4165.376953" xlink:href="#DejaVuSans-52"/>
     <use x="4229" xlink:href="#DejaVuSans-44"/>
    </g>
    <!--  cutoff at 100 iterations (and putting it to 0.02) -->
    <g transform="translate(121.415625 43.192875)scale(0.12 -0.12)">
     <defs>
      <path d="M 31 75.875 
Q 24.46875 64.65625 21.28125 53.65625 
Q 18.109375 42.671875 18.109375 31.390625 
Q 18.109375 20.125 21.3125 9.0625 
Q 24.515625 -2 31 -13.1875 
L 23.1875 -13.1875 
Q 15.875 -1.703125 12.234375 9.375 
Q 8.59375 20.453125 8.59375 31.390625 
Q 8.59375 42.28125 12.203125 53.3125 
Q 15.828125 64.359375 23.1875 75.875 
z
" id="DejaVuSans-40"/>
      <path d="M 8.015625 75.875 
L 15.828125 75.875 
Q 23.140625 64.359375 26.78125 53.3125 
Q 30.421875 42.28125 30.421875 31.390625 
Q 30.421875 20.453125 26.78125 9.375 
Q 23.140625 -1.703125 15.828125 -13.1875 
L 8.015625 -13.1875 
Q 14.5 -2 17.703125 9.0625 
Q 20.90625 20.125 20.90625 31.390625 
Q 20.90625 42.671875 17.703125 53.65625 
Q 14.5 64.65625 8.015625 75.875 
z
" id="DejaVuSans-41"/>
     </defs>
     <use xlink:href="#DejaVuSans-32"/>
     <use x="31.787109" xlink:href="#DejaVuSans-99"/>
     <use x="86.767578" xlink:href="#DejaVuSans-117"/>
     <use x="150.146484" xlink:href="#DejaVuSans-116"/>
     <use x="189.355469" xlink:href="#DejaVuSans-111"/>
     <use x="250.537109" xlink:href="#DejaVuSans-102"/>
     <use x="285.742188" xlink:href="#DejaVuSans-102"/>
     <use x="320.947266" xlink:href="#DejaVuSans-32"/>
     <use x="352.734375" xlink:href="#DejaVuSans-97"/>
     <use x="414.013672" xlink:href="#DejaVuSans-116"/>
     <use x="453.222656" xlink:href="#DejaVuSans-32"/>
     <use x="485.009766" xlink:href="#DejaVuSans-49"/>
     <use x="548.632812" xlink:href="#DejaVuSans-48"/>
     <use x="612.255859" xlink:href="#DejaVuSans-48"/>
     <use x="675.878906" xlink:href="#DejaVuSans-32"/>
     <use x="707.666016" xlink:href="#DejaVuSans-105"/>
     <use x="735.449219" xlink:href="#DejaVuSans-116"/>
     <use x="774.658203" xlink:href="#DejaVuSans-101"/>
     <use x="836.181641" xlink:href="#DejaVuSans-114"/>
     <use x="877.294922" xlink:href="#DejaVuSans-97"/>
     <use x="938.574219" xlink:href="#DejaVuSans-116"/>
     <use x="977.783203" xlink:href="#DejaVuSans-105"/>
     <use x="1005.566406" xlink:href="#DejaVuSans-111"/>
     <use x="1066.748047" xlink:href="#DejaVuSans-110"/>
     <use x="1130.126953" xlink:href="#DejaVuSans-115"/>
     <use x="1182.226562" xlink:href="#DejaVuSans-32"/>
     <use x="1214.013672" xlink:href="#DejaVuSans-40"/>
     <use x="1253.027344" xlink:href="#DejaVuSans-97"/>
     <use x="1314.306641" xlink:href="#DejaVuSans-110"/>
     <use x="1377.685547" xlink:href="#DejaVuSans-100"/>
     <use x="1441.162109" xlink:href="#DejaVuSans-32"/>
     <use x="1472.949219" xlink:href="#DejaVuSans-112"/>
     <use x="1536.425781" xlink:href="#DejaVuSans-117"/>
     <use x="1599.804688" xlink:href="#DejaVuSans-116"/>
     <use x="1639.013672" xlink:href="#DejaVuSans-116"/>
     <use x="1678.222656" xlink:href="#DejaVuSans-105"/>
     <use x="1706.005859" xlink:href="#DejaVuSans-110"/>
     <use x="1769.384766" xlink:href="#DejaVuSans-103"/>
     <use x="1832.861328" xlink:href="#DejaVuSans-32"/>
     <use x="1864.648438" xlink:href="#DejaVuSans-105"/>
     <use x="1892.431641" xlink:href="#DejaVuSans-116"/>
     <use x="1931.640625" xlink:href="#DejaVuSans-32"/>
     <use x="1963.427734" xlink:href="#DejaVuSans-116"/>
     <use x="2002.636719" xlink:href="#DejaVuSans-111"/>
     <use x="2063.818359" xlink:href="#DejaVuSans-32"/>
     <use x="2095.605469" xlink:href="#DejaVuSans-48"/>
     <use x="2159.228516" xlink:href="#DejaVuSans-46"/>
     <use x="2191.015625" xlink:href="#DejaVuSans-48"/>
     <use x="2254.638672" xlink:href="#DejaVuSans-50"/>
     <use x="2318.261719" xlink:href="#DejaVuSans-41"/>
    </g>
   </g>
   <g id="legend_1">
    <g id="patch_7">
     <path d="M 314.163437 261.632875 
L 423.247813 261.632875 
Q 425.247813 261.632875 425.247813 259.632875 
L 425.247813 215.764125 
Q 425.247813 213.764125 423.247813 213.764125 
L 314.163437 213.764125 
Q 312.163437 213.764125 312.163437 215.764125 
L 312.163437 259.632875 
Q 312.163437 261.632875 314.163437 261.632875 
z
" style="fill:#ffffff;opacity:0.8;stroke:#cccccc;stroke-linejoin:miter;"/>
    </g>
    <g id="line2d_17">
     <path d="M 316.163437 221.862562 
L 336.163437 221.862562 
" style="fill:none;stroke:#1f77b4;stroke-linecap:square;stroke-width:1.5;"/>
    </g>
    <g id="line2d_18">
     <g>
      <use style="fill:#1f77b4;stroke:#1f77b4;" x="326.163437" xlink:href="#me6db034838" y="221.862562"/>
     </g>
    </g>
    <g id="text_17">
     <!-- quasi_newton -->
     <g transform="translate(344.163437 225.362562)scale(0.1 -0.1)">
      <defs>
       <path d="M 14.796875 27.296875 
Q 14.796875 17.390625 18.875 11.75 
Q 22.953125 6.109375 30.078125 6.109375 
Q 37.203125 6.109375 41.296875 11.75 
Q 45.40625 17.390625 45.40625 27.296875 
Q 45.40625 37.203125 41.296875 42.84375 
Q 37.203125 48.484375 30.078125 48.484375 
Q 22.953125 48.484375 18.875 42.84375 
Q 14.796875 37.203125 14.796875 27.296875 
z
M 45.40625 8.203125 
Q 42.578125 3.328125 38.25 0.953125 
Q 33.9375 -1.421875 27.875 -1.421875 
Q 17.96875 -1.421875 11.734375 6.484375 
Q 5.515625 14.40625 5.515625 27.296875 
Q 5.515625 40.1875 11.734375 48.09375 
Q 17.96875 56 27.875 56 
Q 33.9375 56 38.25 53.625 
Q 42.578125 51.265625 45.40625 46.390625 
L 45.40625 54.6875 
L 54.390625 54.6875 
L 54.390625 -20.796875 
L 45.40625 -20.796875 
z
" id="DejaVuSans-113"/>
       <path d="M 50.984375 -16.609375 
L 50.984375 -23.578125 
L -0.984375 -23.578125 
L -0.984375 -16.609375 
z
" id="DejaVuSans-95"/>
       <path d="M 4.203125 54.6875 
L 13.1875 54.6875 
L 24.421875 12.015625 
L 35.59375 54.6875 
L 46.1875 54.6875 
L 57.421875 12.015625 
L 68.609375 54.6875 
L 77.59375 54.6875 
L 63.28125 0 
L 52.6875 0 
L 40.921875 44.828125 
L 29.109375 0 
L 18.5 0 
z
" id="DejaVuSans-119"/>
      </defs>
      <use xlink:href="#DejaVuSans-113"/>
      <use x="63.476562" xlink:href="#DejaVuSans-117"/>
      <use x="126.855469" xlink:href="#DejaVuSans-97"/>
      <use x="188.134766" xlink:href="#DejaVuSans-115"/>
      <use x="240.234375" xlink:href="#DejaVuSans-105"/>
      <use x="268.017578" xlink:href="#DejaVuSans-95"/>
      <use x="318.017578" xlink:href="#DejaVuSans-110"/>
      <use x="381.396484" xlink:href="#DejaVuSans-101"/>
      <use x="442.919922" xlink:href="#DejaVuSans-119"/>
      <use x="524.707031" xlink:href="#DejaVuSans-116"/>
      <use x="563.916016" xlink:href="#DejaVuSans-111"/>
      <use x="625.097656" xlink:href="#DejaVuSans-110"/>
     </g>
    </g>
    <g id="line2d_19">
     <path d="M 316.163437 236.818812 
L 336.163437 236.818812 
" style="fill:none;stroke:#ff7f0e;stroke-linecap:square;stroke-width:1.5;"/>
    </g>
    <g id="line2d_20">
     <g>
      <use style="fill:#ff7f0e;stroke:#ff7f0e;" x="326.163437" xlink:href="#mcc860e1507" y="236.818812"/>
     </g>
    </g>
    <g id="text_18">
     <!-- normal_newton -->
     <g transform="translate(344.163437 240.318812)scale(0.1 -0.1)">
      <use xlink:href="#DejaVuSans-110"/>
      <use x="63.378906" xlink:href="#DejaVuSans-111"/>
      <use x="124.560547" xlink:href="#DejaVuSans-114"/>
      <use x="163.923828" xlink:href="#DejaVuSans-109"/>
      <use x="261.335938" xlink:href="#DejaVuSans-97"/>
      <use x="322.615234" xlink:href="#DejaVuSans-108"/>
      <use x="350.398438" xlink:href="#DejaVuSans-95"/>
      <use x="400.398438" xlink:href="#DejaVuSans-110"/>
      <use x="463.777344" xlink:href="#DejaVuSans-101"/>
      <use x="525.300781" xlink:href="#DejaVuSans-119"/>
      <use x="607.087891" xlink:href="#DejaVuSans-116"/>
      <use x="646.296875" xlink:href="#DejaVuSans-111"/>
      <use x="707.478516" xlink:href="#DejaVuSans-110"/>
     </g>
    </g>
    <g id="line2d_21">
     <path d="M 316.163437 251.775062 
L 336.163437 251.775062 
" style="fill:none;stroke:#2ca02c;stroke-linecap:square;stroke-width:1.5;"/>
    </g>
    <g id="line2d_22">
     <g>
      <use style="fill:#2ca02c;stroke:#2ca02c;" x="326.163437" xlink:href="#ma515fed77e" y="251.775062"/>
     </g>
    </g>
    <g id="text_19">
     <!-- easy_newton -->
     <g transform="translate(344.163437 255.275062)scale(0.1 -0.1)">
      <use xlink:href="#DejaVuSans-101"/>
      <use x="61.523438" xlink:href="#DejaVuSans-97"/>
      <use x="122.802734" xlink:href="#DejaVuSans-115"/>
      <use x="174.902344" xlink:href="#DejaVuSans-121"/>
      <use x="234.082031" xlink:href="#DejaVuSans-95"/>
      <use x="284.082031" xlink:href="#DejaVuSans-110"/>
      <use x="347.460938" xlink:href="#DejaVuSans-101"/>
      <use x="408.984375" xlink:href="#DejaVuSans-119"/>
      <use x="490.771484" xlink:href="#DejaVuSans-116"/>
      <use x="529.980469" xlink:href="#DejaVuSans-111"/>
      <use x="591.162109" xlink:href="#DejaVuSans-110"/>
     </g>
    </g>
   </g>
  </g>
 </g>
 <defs>
  <clipPath id="p6bdc444ef3">
   <rect height="217.44" width="334.8" x="95.447812" y="49.192875"/>
  </clipPath>
 </defs>
</svg>
